<svg xmlns="http://www.w3.org/2000/svg" version="1.1" xmlns:xlink="http://www.w3.org/1999/xlink" xmlns:svgjs="http://svgjs.dev/svgjs" width="1000" height="285" viewBox="0 0 1000 285"><g transform="matrix(1,0,0,1,-0.6060325615725901,-0.5374804133653583)"><svg viewBox="0 0 396 113" data-background-color="#ffffff" preserveAspectRatio="xMidYMid meet" height="285" width="1000" xmlns="http://www.w3.org/2000/svg" xmlns:xlink="http://www.w3.org/1999/xlink"><g id="tight-bounds" transform="matrix(1,0,0,1,0.23998889438274773,0.21310758143468433)"><svg viewBox="0 0 395.52 112.5737861494064" height="112.5737861494064" width="395.52"><g><svg viewBox="0 0 395.52 112.5737861494064" height="112.5737861494064" width="395.52"><g><svg viewBox="0 0 395.52 112.5737861494064" height="112.5737861494064" width="395.52"><g id="textblocktransform"><svg viewBox="0 0 395.52 112.5737861494064" height="112.5737861494064" width="395.52" id="textblock"><g><svg viewBox="0 0 395.52 60.71692106979779" height="60.71692106979779" width="395.52"><g transform="matrix(1,0,0,1,0,0)"><svg width="395.52" viewBox="3.5999999046325684 -34.79999923706055 229.9399871826172 35.29999923706055" height="60.71692106979779" data-palette-color="#ff0033"><path d="M16.6-34.3Q20.85-34.3 24.33-32.5 27.8-30.7 29.85-27.25 31.9-23.8 31.9-19.1L31.9-19.1 31.9-15.2Q31.9-10.5 29.85-7.05 27.8-3.6 24.33-1.8 20.85 0 16.6 0L16.6 0 3.6 0 3.6-34.3 16.6-34.3ZM11.35-28.15L11.35-6.15 16.6-6.15Q19.8-6.15 21.8-8.22 23.8-10.3 23.8-14.1L23.8-14.1 23.8-20.2Q23.8-24 21.8-26.08 19.8-28.15 16.6-28.15L16.6-28.15 11.35-28.15ZM67.3-14.7Q67.3-10 65.25-6.55 63.2-3.1 59.72-1.3 56.25 0.5 52 0.5L52 0.5Q47.75 0.5 44.27-1.3 40.8-3.1 38.75-6.55 36.7-10 36.7-14.7L36.7-14.7 36.7-19.6Q36.7-24.3 38.75-27.75 40.8-31.2 44.27-33 47.75-34.8 52-34.8L52-34.8Q56.25-34.8 59.72-33 63.2-31.2 65.25-27.75 67.3-24.3 67.3-19.6L67.3-19.6 67.3-14.7ZM59.2-20.7Q59.2-24.5 57.2-26.58 55.2-28.65 52-28.65L52-28.65Q48.8-28.65 46.8-26.58 44.8-24.5 44.8-20.7L44.8-20.7 44.8-13.6Q44.8-9.8 46.8-7.73 48.8-5.65 52-5.65L52-5.65Q55.2-5.65 57.2-7.73 59.2-9.8 59.2-13.6L59.2-13.6 59.2-20.7ZM114.4 0L106.7 0 106.7-25.25 106.45-25.25 97.55 0 89.45 0 80.55-25.25 80.3-25.25 80.3 0 73.3 0 73.3-34.3 85.75-34.3 93.75-11.65 93.95-11.65 101.95-34.3 114.4-34.3 114.4 0ZM151.04-14.7Q151.04-10 148.99-6.55 146.94-3.1 143.47-1.3 139.99 0.5 135.74 0.5L135.74 0.5Q131.49 0.5 128.02-1.3 124.54-3.1 122.49-6.55 120.44-10 120.44-14.7L120.44-14.7 120.44-19.6Q120.44-24.3 122.49-27.75 124.54-31.2 128.02-33 131.49-34.8 135.74-34.8L135.74-34.8Q139.99-34.8 143.47-33 146.94-31.2 148.99-27.75 151.04-24.3 151.04-19.6L151.04-19.6 151.04-14.7ZM142.94-20.7Q142.94-24.5 140.94-26.58 138.94-28.65 135.74-28.65L135.74-28.65Q132.54-28.65 130.54-26.58 128.54-24.5 128.54-20.7L128.54-20.7 128.54-13.6Q128.54-9.8 130.54-7.73 132.54-5.65 135.74-5.65L135.74-5.65Q138.94-5.65 140.94-7.73 142.94-9.8 142.94-13.6L142.94-13.6 142.94-20.7ZM177.64-20.6L171.94 0 163.39 0 153.79-34.3 161.84-34.3 167.89-11.85 168.14-11.85 174.24-34.3 181.99-34.3 188.04-11.85 188.29-11.85 194.34-34.3 201.64-34.3 191.99 0 183.54 0 177.94-20.6 177.64-20.6ZM233.54-34.3L221.84-13.15 221.84 0 214.14 0 214.14-13.15 202.39-34.3 211.09-34.3 218.24-20.7 218.49-20.7 225.64-34.3 233.54-34.3Z" opacity="1" transform="matrix(1,0,0,1,0,0)" fill="#000000" class="wordmark-text-0" data-fill-palette-color="primary" id="text-0"></path></svg></g></svg></g><g transform="matrix(1,0,0,1,0,75.05072892827138)"><svg viewBox="0 0 146.56577472120225 37.52305722113503" height="37.52305722113503" width="146.56577472120225"><g transform="matrix(1,0,0,1,0,0)"><svg width="146.56577472120225" viewBox="2.799999952316284 -37.849998474121094 184.9199981689453 47.349998474121094" height="37.52305722113503" data-palette-color="#000000"><path d="M6.45 9.5L2.8 9.5 2.8-28.9 6.45-28.9 6.45-26.5Q7.35-27.6 8.7-28.48 10.05-29.35 12-29.35L12-29.35Q14.1-29.35 15.38-28.38 16.65-27.4 17.35-25.75 18.05-24.1 18.3-22.05 18.55-20 18.55-17.85L18.55-17.85 18.55-11.75Q18.55-8.05 17.95-5.33 17.35-2.6 15.83-1.07 14.3 0.45 11.6 0.45L11.6 0.45Q9.85 0.45 8.58-0.45 7.3-1.35 6.45-2.3L6.45-2.3 6.45 9.5ZM11.05-2.45L11.05-2.45Q12.7-2.45 13.53-3.5 14.35-4.55 14.63-6.63 14.9-8.7 14.9-11.65L14.9-11.65 14.9-17.85Q14.9-20.65 14.63-22.58 14.35-24.5 13.5-25.5 12.65-26.5 10.95-26.5L10.95-26.5Q9.55-26.5 8.38-25.75 7.2-25 6.45-24.25L6.45-24.25 6.45-4.55Q7.25-3.7 8.43-3.08 9.6-2.45 11.05-2.45ZM30.9 0.45L30.9 0.45Q28.2 0.45 26.47-0.63 24.75-1.7 23.92-4.2 23.1-6.7 23.1-10.85L23.1-10.85 23.1-18.15Q23.1-22.45 23.95-24.88 24.8-27.3 26.55-28.33 28.3-29.35 30.95-29.35L30.95-29.35Q34-29.35 35.6-28.05 37.2-26.75 37.82-24.13 38.45-21.5 38.45-17.4L38.45-17.4 38.45-14.8 26.75-14.8 26.75-9.75Q26.75-6.95 27.17-5.33 27.6-3.7 28.52-3 29.45-2.3 30.9-2.3L30.9-2.3Q32-2.3 32.9-2.73 33.8-3.15 34.32-4.38 34.85-5.6 34.85-7.85L34.85-7.85 34.85-9.85 38.4-9.85 38.4-8.25Q38.4-4.3 36.77-1.93 35.15 0.45 30.9 0.45ZM26.75-18.85L26.75-16.9 34.85-16.9 34.85-19.3Q34.85-21.6 34.6-23.23 34.35-24.85 33.52-25.73 32.7-26.6 30.9-26.6L30.9-26.6Q29.4-26.6 28.47-25.95 27.55-25.3 27.15-23.63 26.75-21.95 26.75-18.85L26.75-18.85ZM50.24 0.35L50.24 0.35Q48.14 0.35 47.02-0.48 45.89-1.3 45.47-2.73 45.05-4.15 45.05-6L45.05-6 45.05-26.5 41.49-26.5 41.49-28.9 45.05-28.9 45.05-37.85 48.7-37.85 48.7-28.9 53.49-28.9 53.49-26.5 48.7-26.5 48.7-6.35Q48.7-4.25 49.17-3.38 49.64-2.5 51.24-2.5L51.24-2.5Q51.7-2.5 52.27-2.58 52.84-2.65 53.34-2.75L53.34-2.75 53.34 0.05Q52.59 0.2 51.8 0.28 50.99 0.35 50.24 0.35ZM67.34-14.85L56.74-14.85 56.74-17.75 67.34-17.75 67.34-14.85ZM75.89 9.5L72.24 9.5 72.24-28.9 75.89-28.9 75.89-26.5Q76.79-27.6 78.14-28.48 79.49-29.35 81.44-29.35L81.44-29.35Q83.54-29.35 84.81-28.38 86.09-27.4 86.79-25.75 87.49-24.1 87.74-22.05 87.99-20 87.99-17.85L87.99-17.85 87.99-11.75Q87.99-8.05 87.39-5.33 86.79-2.6 85.27-1.07 83.74 0.45 81.04 0.45L81.04 0.45Q79.29 0.45 78.02-0.45 76.74-1.35 75.89-2.3L75.89-2.3 75.89 9.5ZM80.49-2.45L80.49-2.45Q82.14-2.45 82.97-3.5 83.79-4.55 84.06-6.63 84.34-8.7 84.34-11.65L84.34-11.65 84.34-17.85Q84.34-20.65 84.06-22.58 83.79-24.5 82.94-25.5 82.09-26.5 80.39-26.5L80.39-26.5Q78.99-26.5 77.81-25.75 76.64-25 75.89-24.25L75.89-24.25 75.89-4.55Q76.69-3.7 77.86-3.08 79.04-2.45 80.49-2.45ZM97.04 0L93.34 0 93.34-28.9 97.04-28.9 97.04-24.95Q98.44-27.25 100.24-28.23 102.04-29.2 103.69-29.2L103.69-29.2Q103.84-29.2 103.99-29.2 104.14-29.2 104.34-29.15L104.34-29.15 104.34-25.25Q103.99-25.4 103.49-25.48 102.99-25.55 102.54-25.55L102.54-25.55Q100.84-25.55 99.46-24.75 98.09-23.95 97.04-22.2L97.04-22.2 97.04 0ZM114.98 0.45L114.98 0.45Q112.03 0.45 110.36-0.83 108.69-2.1 107.98-4.53 107.28-6.95 107.28-10.45L107.28-10.45 107.28-18.45Q107.28-21.95 107.98-24.38 108.69-26.8 110.36-28.08 112.03-29.35 114.98-29.35L114.98-29.35Q118.03-29.35 119.69-28.08 121.33-26.8 122.03-24.38 122.73-21.95 122.73-18.45L122.73-18.45 122.73-10.45Q122.73-6.95 122.03-4.53 121.33-2.1 119.69-0.83 118.03 0.45 114.98 0.45ZM114.98-2.3L114.98-2.3Q116.88-2.3 117.76-3.3 118.63-4.3 118.83-6.13 119.03-7.95 119.03-10.25L119.03-10.25 119.03-18.65Q119.03-21 118.83-22.78 118.63-24.55 117.76-25.58 116.88-26.6 114.98-26.6L114.98-26.6Q113.08-26.6 112.23-25.58 111.38-24.55 111.19-22.78 110.98-21 110.98-18.65L110.98-18.65 110.98-10.25Q110.98-7.95 111.19-6.13 111.38-4.3 112.23-3.3 113.08-2.3 114.98-2.3ZM126.08 7.6L126.08 7.6Q125.73 7.6 125.08 7.55 124.43 7.5 124.13 7.4L124.13 7.4 124.13 4.6Q124.28 4.65 124.76 4.67 125.23 4.7 125.38 4.7L125.38 4.7Q126.93 4.7 127.66 4.13 128.38 3.55 128.61 2.63 128.83 1.7 128.83 0.7L128.83 0.7 128.83-28.9 132.48-28.9 132.48 1Q132.48 4.45 130.78 6.03 129.08 7.6 126.08 7.6ZM132.48-32.9L128.83-32.9 128.83-37.85 132.48-37.85 132.48-32.9ZM145.68 0.45L145.68 0.45Q142.98 0.45 141.25-0.63 139.53-1.7 138.7-4.2 137.88-6.7 137.88-10.85L137.88-10.85 137.88-18.15Q137.88-22.45 138.73-24.88 139.58-27.3 141.33-28.33 143.08-29.35 145.73-29.35L145.73-29.35Q148.78-29.35 150.38-28.05 151.98-26.75 152.6-24.13 153.23-21.5 153.23-17.4L153.23-17.4 153.23-14.8 141.53-14.8 141.53-9.75Q141.53-6.95 141.95-5.33 142.38-3.7 143.31-3 144.23-2.3 145.68-2.3L145.68-2.3Q146.78-2.3 147.68-2.73 148.58-3.15 149.1-4.38 149.63-5.6 149.63-7.85L149.63-7.85 149.63-9.85 153.18-9.85 153.18-8.25Q153.18-4.3 151.56-1.93 149.93 0.45 145.68 0.45ZM141.53-18.85L141.53-16.9 149.63-16.9 149.63-19.3Q149.63-21.6 149.38-23.23 149.13-24.85 148.31-25.73 147.48-26.6 145.68-26.6L145.68-26.6Q144.18-26.6 143.25-25.95 142.33-25.3 141.93-23.63 141.53-21.95 141.53-18.85L141.53-18.85ZM165.38 0.45L165.38 0.45Q161.98 0.45 160.33-1.05 158.68-2.55 158.15-5.13 157.63-7.7 157.63-10.95L157.63-10.95 157.63-17.7Q157.63-21.7 158.28-24.28 158.93-26.85 160.6-28.1 162.28-29.35 165.38-29.35L165.38-29.35Q168.43-29.35 170.03-28.2 171.63-27.05 172.18-24.95 172.73-22.85 172.73-20.1L172.73-20.1 172.73-18.7 169.33-18.7 169.33-20.1Q169.33-22.65 168.95-24.05 168.58-25.45 167.7-26.03 166.83-26.6 165.38-26.6L165.38-26.6Q163.68-26.6 162.78-25.8 161.88-25 161.58-23.18 161.28-21.35 161.28-18.3L161.28-18.3 161.28-10.2Q161.28-5.85 162.13-4.08 162.98-2.3 165.43-2.3L165.43-2.3Q167.13-2.3 167.98-3.08 168.83-3.85 169.08-5.4 169.33-6.95 169.33-9.25L169.33-9.25 169.33-10.85 172.73-10.85 172.73-9.45Q172.73-6.55 172.2-4.33 171.68-2.1 170.08-0.83 168.48 0.45 165.38 0.45ZM184.47 0.35L184.47 0.35Q182.38 0.35 181.25-0.48 180.13-1.3 179.7-2.73 179.27-4.15 179.27-6L179.27-6 179.27-26.5 175.72-26.5 175.72-28.9 179.27-28.9 179.27-37.85 182.92-37.85 182.92-28.9 187.72-28.9 187.72-26.5 182.92-26.5 182.92-6.35Q182.92-4.25 183.4-3.38 183.88-2.5 185.47-2.5L185.47-2.5Q185.92-2.5 186.5-2.58 187.07-2.65 187.57-2.75L187.57-2.75 187.57 0.05Q186.82 0.2 186.02 0.28 185.22 0.35 184.47 0.35Z" opacity="1" transform="matrix(1,0,0,1,0,0)" fill="#000000" class="slogan-text-1" data-fill-palette-color="secondary" id="text-1"></path></svg></g></svg></g></svg></g></svg></g><g></g></svg></g><defs></defs></svg><rect width="395.52" height="112.5737861494064" fill="none" stroke="none" visibility="hidden"></rect></g></svg></g></svg>